<svg width="28.000000" height="28.000000" viewBox="0 0 28 28" fill="none" xmlns="http://www.w3.org/2000/svg" xmlns:xlink="http://www.w3.org/1999/xlink">
	<desc>
			Created with Pixso.
	</desc>
	<defs/>
	<path id="vector" d="M14 28C21.73 28 28 21.73 28 14C28 6.26 21.73 0 14 0C6.26 0 0 6.26 0 14C0 21.73 6.26 28 14 28ZM7.31 15.16C6.92 14.77 6.92 14.14 7.31 13.75C7.7 13.36 8.33 13.36 8.73 13.75L12.26 17.29L20.04 9.51C20.43 9.12 21.06 9.12 21.45 9.51C21.84 9.9 21.84 10.53 21.45 10.92L12.97 19.41C12.58 19.8 11.95 19.8 11.55 19.41L7.31 15.16Z" fill="#02A882" fill-opacity="1.000000" fill-rule="evenodd"/>
</svg>
